<mxfile host="app.diagrams.net" agent="Mozilla/5.0 (Macintosh; Intel Mac OS X 10_15_7) AppleWebKit/537.36 (KHTML, like Gecko) Chrome/133.0.0.0 Safari/537.36" version="26.1.1">
  <diagram name="Page-1" id="eN59mrn7UwDO9Ajw1cms">
    <mxGraphModel dx="2074" dy="1152" grid="1" gridSize="10" guides="1" tooltips="1" connect="1" arrows="1" fold="1" page="1" pageScale="1" pageWidth="850" pageHeight="1100" math="0" shadow="0">
      <root>
        <mxCell id="0" />
        <mxCell id="1" parent="0" />
        <mxCell id="2w64b10mOKRANj8tdl7Y-13" style="edgeStyle=orthogonalEdgeStyle;rounded=0;orthogonalLoop=1;jettySize=auto;html=1;exitX=0.5;exitY=1;exitDx=0;exitDy=0;entryX=0.5;entryY=0;entryDx=0;entryDy=0;" edge="1" parent="1" source="2w64b10mOKRANj8tdl7Y-1" target="2w64b10mOKRANj8tdl7Y-2">
          <mxGeometry relative="1" as="geometry" />
        </mxCell>
        <mxCell id="2w64b10mOKRANj8tdl7Y-1" value="Đơn hóa trị liệu" style="rounded=1;whiteSpace=wrap;html=1;" vertex="1" parent="1">
          <mxGeometry x="290" y="60" width="120" height="60" as="geometry" />
        </mxCell>
        <mxCell id="2w64b10mOKRANj8tdl7Y-14" style="edgeStyle=orthogonalEdgeStyle;rounded=0;orthogonalLoop=1;jettySize=auto;html=1;exitX=0.5;exitY=1;exitDx=0;exitDy=0;entryX=0.5;entryY=0;entryDx=0;entryDy=0;" edge="1" parent="1" source="2w64b10mOKRANj8tdl7Y-2" target="2w64b10mOKRANj8tdl7Y-3">
          <mxGeometry relative="1" as="geometry" />
        </mxCell>
        <mxCell id="2w64b10mOKRANj8tdl7Y-30" style="edgeStyle=orthogonalEdgeStyle;rounded=0;orthogonalLoop=1;jettySize=auto;html=1;exitX=0;exitY=0.5;exitDx=0;exitDy=0;entryX=0;entryY=0.5;entryDx=0;entryDy=0;" edge="1" parent="1" source="2w64b10mOKRANj8tdl7Y-2" target="2w64b10mOKRANj8tdl7Y-1">
          <mxGeometry relative="1" as="geometry">
            <Array as="points">
              <mxPoint x="250" y="200" />
              <mxPoint x="250" y="90" />
            </Array>
          </mxGeometry>
        </mxCell>
        <mxCell id="2w64b10mOKRANj8tdl7Y-2" value="Duyệt" style="rhombus;whiteSpace=wrap;html=1;" vertex="1" parent="1">
          <mxGeometry x="310" y="160" width="80" height="80" as="geometry" />
        </mxCell>
        <mxCell id="2w64b10mOKRANj8tdl7Y-15" style="edgeStyle=orthogonalEdgeStyle;rounded=0;orthogonalLoop=1;jettySize=auto;html=1;exitX=0.5;exitY=1;exitDx=0;exitDy=0;entryX=0.5;entryY=0;entryDx=0;entryDy=0;" edge="1" parent="1" source="2w64b10mOKRANj8tdl7Y-3" target="2w64b10mOKRANj8tdl7Y-4">
          <mxGeometry relative="1" as="geometry" />
        </mxCell>
        <mxCell id="2w64b10mOKRANj8tdl7Y-3" value="&lt;p style=&quot;margin: 0cm 0cm 8pt; line-height: 15.6933px; font-size: 11pt; font-family: Aptos, sans-serif;&quot; align=&quot;center&quot; class=&quot;MsoNormal&quot;&gt;&lt;span style=&quot;font-size: 10pt; line-height: 14.2667px; font-family: &amp;quot;Times New Roman&amp;quot;, serif;&quot; lang=&quot;EN-US&quot;&gt;Tập hợp, đối chiếu phiếu xuất, lĩnh thuốc&lt;/span&gt;&lt;/p&gt;" style="rounded=0;whiteSpace=wrap;html=1;" vertex="1" parent="1">
          <mxGeometry x="290" y="290" width="120" height="60" as="geometry" />
        </mxCell>
        <mxCell id="2w64b10mOKRANj8tdl7Y-16" style="edgeStyle=orthogonalEdgeStyle;rounded=0;orthogonalLoop=1;jettySize=auto;html=1;exitX=0.5;exitY=1;exitDx=0;exitDy=0;entryX=0.5;entryY=0;entryDx=0;entryDy=0;" edge="1" parent="1" source="2w64b10mOKRANj8tdl7Y-4" target="2w64b10mOKRANj8tdl7Y-5">
          <mxGeometry relative="1" as="geometry" />
        </mxCell>
        <mxCell id="2w64b10mOKRANj8tdl7Y-4" value="&lt;p style=&quot;margin: 0cm 0cm 8pt; line-height: 15.6933px; font-size: 11pt; font-family: Aptos, sans-serif;&quot; align=&quot;center&quot; class=&quot;MsoNormal&quot;&gt;&lt;span style=&quot;font-size: 10pt; line-height: 14.2667px; font-family: &amp;quot;Times New Roman&amp;quot;, serif;&quot; lang=&quot;EN-US&quot;&gt;Đối chiếu đơn, in phiếu pha&lt;/span&gt;&lt;/p&gt;" style="rounded=0;whiteSpace=wrap;html=1;" vertex="1" parent="1">
          <mxGeometry x="290" y="400" width="120" height="60" as="geometry" />
        </mxCell>
        <mxCell id="2w64b10mOKRANj8tdl7Y-17" style="edgeStyle=orthogonalEdgeStyle;rounded=0;orthogonalLoop=1;jettySize=auto;html=1;exitX=0.5;exitY=1;exitDx=0;exitDy=0;entryX=0.5;entryY=0;entryDx=0;entryDy=0;" edge="1" parent="1" source="2w64b10mOKRANj8tdl7Y-5" target="2w64b10mOKRANj8tdl7Y-6">
          <mxGeometry relative="1" as="geometry" />
        </mxCell>
        <mxCell id="2w64b10mOKRANj8tdl7Y-5" value="&lt;p style=&quot;margin: 0cm 0cm 8pt; line-height: 15.6933px; font-size: 11pt; font-family: Aptos, sans-serif;&quot; align=&quot;center&quot; class=&quot;MsoNormal&quot;&gt;&lt;span style=&quot;font-size: 10pt; line-height: 14.2667px; font-family: &amp;quot;Times New Roman&amp;quot;, serif;&quot; lang=&quot;EN-US&quot;&gt;Chuẩn bị nhãn, dụng cụ, nguyên liệu&lt;/span&gt;&lt;/p&gt;" style="rounded=0;whiteSpace=wrap;html=1;" vertex="1" parent="1">
          <mxGeometry x="290" y="500" width="120" height="60" as="geometry" />
        </mxCell>
        <mxCell id="2w64b10mOKRANj8tdl7Y-18" style="edgeStyle=orthogonalEdgeStyle;rounded=0;orthogonalLoop=1;jettySize=auto;html=1;exitX=0.5;exitY=1;exitDx=0;exitDy=0;entryX=0.5;entryY=0;entryDx=0;entryDy=0;" edge="1" parent="1" source="2w64b10mOKRANj8tdl7Y-6" target="2w64b10mOKRANj8tdl7Y-7">
          <mxGeometry relative="1" as="geometry" />
        </mxCell>
        <mxCell id="2w64b10mOKRANj8tdl7Y-6" value="&lt;p style=&quot;margin: 0cm 0cm 8pt; line-height: 15.6933px; font-size: 11pt; font-family: Aptos, sans-serif;&quot; align=&quot;center&quot; class=&quot;MsoNormal&quot;&gt;&lt;span style=&quot;font-size: 10pt; line-height: 14.2667px; font-family: &amp;quot;Times New Roman&amp;quot;, serif;&quot; lang=&quot;EN-US&quot;&gt;Chuyển vào ISOLATOR&lt;/span&gt;&lt;/p&gt;" style="rounded=0;whiteSpace=wrap;html=1;" vertex="1" parent="1">
          <mxGeometry x="290" y="600" width="120" height="60" as="geometry" />
        </mxCell>
        <mxCell id="2w64b10mOKRANj8tdl7Y-20" style="edgeStyle=orthogonalEdgeStyle;rounded=0;orthogonalLoop=1;jettySize=auto;html=1;exitX=0.5;exitY=1;exitDx=0;exitDy=0;entryX=0.5;entryY=0;entryDx=0;entryDy=0;" edge="1" parent="1" source="2w64b10mOKRANj8tdl7Y-7" target="2w64b10mOKRANj8tdl7Y-8">
          <mxGeometry relative="1" as="geometry" />
        </mxCell>
        <mxCell id="2w64b10mOKRANj8tdl7Y-7" value="&lt;p style=&quot;margin: 0cm 0cm 8pt; line-height: 15.6933px; font-size: 11pt; font-family: Aptos, sans-serif;&quot; align=&quot;center&quot; class=&quot;MsoNormal&quot;&gt;&lt;span style=&quot;font-size: 10pt; line-height: 14.2667px; font-family: &amp;quot;Times New Roman&amp;quot;, serif;&quot; lang=&quot;EN-US&quot;&gt;Pha thuốc&lt;/span&gt;&lt;/p&gt;" style="rounded=0;whiteSpace=wrap;html=1;" vertex="1" parent="1">
          <mxGeometry x="290" y="700" width="120" height="60" as="geometry" />
        </mxCell>
        <mxCell id="2w64b10mOKRANj8tdl7Y-21" style="edgeStyle=orthogonalEdgeStyle;rounded=0;orthogonalLoop=1;jettySize=auto;html=1;exitX=0.5;exitY=1;exitDx=0;exitDy=0;entryX=0.5;entryY=0;entryDx=0;entryDy=0;" edge="1" parent="1" source="2w64b10mOKRANj8tdl7Y-8" target="2w64b10mOKRANj8tdl7Y-11">
          <mxGeometry relative="1" as="geometry">
            <Array as="points">
              <mxPoint x="350" y="880" />
              <mxPoint x="350" y="880" />
            </Array>
          </mxGeometry>
        </mxCell>
        <mxCell id="2w64b10mOKRANj8tdl7Y-8" value="&lt;p style=&quot;margin: 0cm 0cm 8pt; line-height: 15.6933px; font-size: 11pt; font-family: Aptos, sans-serif;&quot; align=&quot;center&quot; class=&quot;MsoNormal&quot;&gt;&lt;span style=&quot;font-size: 10pt; line-height: 14.2667px; font-family: &amp;quot;Times New Roman&amp;quot;, serif;&quot; lang=&quot;EN-US&quot;&gt;Kiểm tra thành phẩm&lt;/span&gt;&lt;/p&gt;" style="rounded=0;whiteSpace=wrap;html=1;" vertex="1" parent="1">
          <mxGeometry x="290" y="800" width="120" height="60" as="geometry" />
        </mxCell>
        <mxCell id="2w64b10mOKRANj8tdl7Y-26" style="edgeStyle=orthogonalEdgeStyle;rounded=0;orthogonalLoop=1;jettySize=auto;html=1;exitX=1;exitY=0.5;exitDx=0;exitDy=0;entryX=0;entryY=0.5;entryDx=0;entryDy=0;" edge="1" parent="1" source="2w64b10mOKRANj8tdl7Y-9" target="2w64b10mOKRANj8tdl7Y-7">
          <mxGeometry relative="1" as="geometry" />
        </mxCell>
        <mxCell id="2w64b10mOKRANj8tdl7Y-28" style="edgeStyle=orthogonalEdgeStyle;rounded=0;orthogonalLoop=1;jettySize=auto;html=1;exitX=1;exitY=0.5;exitDx=0;exitDy=0;entryX=0;entryY=0.5;entryDx=0;entryDy=0;" edge="1" parent="1" source="2w64b10mOKRANj8tdl7Y-9" target="2w64b10mOKRANj8tdl7Y-8">
          <mxGeometry relative="1" as="geometry" />
        </mxCell>
        <mxCell id="2w64b10mOKRANj8tdl7Y-9" value="&lt;p style=&quot;margin: 0cm 0cm 8pt; line-height: 15.6933px; font-size: 11pt; font-family: Aptos, sans-serif;&quot; align=&quot;center&quot; class=&quot;MsoNormal&quot;&gt;&lt;span style=&quot;font-size: 10pt; line-height: 14.2667px; font-family: &amp;quot;Times New Roman&amp;quot;, serif;&quot; lang=&quot;EN-US&quot;&gt;Giám sát&lt;/span&gt;&lt;/p&gt;" style="whiteSpace=wrap;html=1;aspect=fixed;" vertex="1" parent="1">
          <mxGeometry x="150" y="740" width="80" height="80" as="geometry" />
        </mxCell>
        <mxCell id="2w64b10mOKRANj8tdl7Y-24" style="edgeStyle=orthogonalEdgeStyle;rounded=0;orthogonalLoop=1;jettySize=auto;html=1;exitX=1;exitY=0.5;exitDx=0;exitDy=0;entryX=1;entryY=0.5;entryDx=0;entryDy=0;" edge="1" parent="1" target="2w64b10mOKRANj8tdl7Y-10">
          <mxGeometry relative="1" as="geometry">
            <mxPoint x="350" y="880" as="sourcePoint" />
          </mxGeometry>
        </mxCell>
        <mxCell id="2w64b10mOKRANj8tdl7Y-10" value="&lt;p style=&quot;margin: 0cm 0cm 8pt; line-height: 15.6933px; font-size: 11pt; font-family: Aptos, sans-serif;&quot; align=&quot;center&quot; class=&quot;MsoNormal&quot;&gt;&lt;span style=&quot;font-size: 10pt; line-height: 14.2667px; font-family: &amp;quot;Times New Roman&amp;quot;, serif;&quot; lang=&quot;EN-US&quot;&gt;Bàn giao khoa điều trị&lt;/span&gt;&lt;/p&gt;" style="rounded=0;whiteSpace=wrap;html=1;" vertex="1" parent="1">
          <mxGeometry x="90" y="850" width="120" height="60" as="geometry" />
        </mxCell>
        <mxCell id="2w64b10mOKRANj8tdl7Y-11" value="Thu dọn" style="rounded=1;whiteSpace=wrap;html=1;" vertex="1" parent="1">
          <mxGeometry x="290" y="900" width="120" height="60" as="geometry" />
        </mxCell>
      </root>
    </mxGraphModel>
  </diagram>
</mxfile>
